<svg version="1" xmlns="http://www.w3.org/2000/svg" width="533.333" height="533.333" viewBox="0 0 400.000000 400.000000"><path d="M169.8 22.1c-1 1-1.8 2.2-1.8 2.6-.1.5-.8 3.3-1.7 6.3-1 3-1.7 5.8-1.7 6.2-.1.3-.5 1-1 1.5s-.6.2-.1-.6c.6-1 .4-1.2-.4-.6-.7.4-1.1 1.6-.8 2.6.3 1.1.1 1.9-.4 1.9-.4 0-.6.7-.2 1.5.4 1.3-.1 1.2-3.3-.4-4.6-2.3-9.6-3.2-11.5-2-1.1.7-.9.9.7.9 1.1 0 2.5.5 3.2 1.2.7.7 1.2.8 1.2.4 0-.5 1.4.8 3 2.9 3.7 4.6 3.4 6-1.1 6-3.8.1-12.1 4.3-11.2 5.8.3.5.9.4 1.3-.3.6-.9.9-.9 1.3.1s.6 1 .6.1c.1-.6.8-1.2 1.7-1.2.9 0 1.2-.5.8-1.3-.5-.8-.2-.8.9.2 1.6 1.2 1.5 1.6-1.3 4.7-3.2 3.7-4.6 7.6-3.5 9.4.6.9 1 .9 1.7-.1.6-1 .8-.1.4 2.6-1.2 8.1-1.7 10-3.1 11.1-.8.6-1.5 1.4-1.5 1.8 0 1.8-15.2 18.3-22 23.9-2.8 2.2-16.4 11.2-27 17.7-5.7 3.6-13.3 9.2-16.8 12.5-15.9 14.7-27 39-27.3 59.1-.1 9.9.6 13.5 3.2 15.6 3 2.5 5.1 1.6 12.4-5.5 11.3-11.2 34.5-30.6 44.8-37.7 5.5-3.7 17.3-16.2 21.8-22.9 2.7-4.1 6.5-11.5 8.5-16.3 2.1-4.9 3.9-8.6 4.1-8.4.3.2.7 1.9.9 3.8.3 1.8 1.2 5.6 2 8.4 1.5 4.7 1.5 6.3-.1 13.7-1.9 9.2-8.4 21.5-14.2 26.8-23.8 22-35.9 38.6-37.7 51.9-.1.9-.4 2-.7 2.5-.7 1.3-.3 13.7.6 19.2.4 2.8.1 6.1-1 10-1 3.2-1.9 6.9-2.2 8.2-.6 3.4-1.2 4.2-3.1 3.9-.9-.2-1.6.2-1.5.8.1.6-.8.9-2 .8-1.2-.1-2.6-.3-3-.3-.5-.1-.5-.6-.2-1.1.4-.6.3-.9-.2-.8-.4.1-1.9-.4-3.2-1.1-1.9-1.1-2.2-1.1-1.6.1.4.7.1.7-.7-.2-1.3-1.6-4.8-1.6-4.8 0 0 .4-1.8 1.5-3.9 2.4-4.8 1.9-6.1 4.8-3.4 7.9 2.8 3.4 4.5 4.7 8.1 6.3 2.1.9 3.2 2.1 3.2 3.5 0 1.9.1 1.9 1.6.4 1.1-1.1 2-1.3 2.7-.6.6.6.5 1.5-.5 2.5-.8.8-2.1 2.9-2.8 4.8-.7 1.8-1.4 3.4-1.5 3.5-.4.6-7.4-3.6-9.6-5.6-6.4-6.2-15.5-10.6-24.3-11.8-2.2-.3-5.2-1.4-6.6-2.4-1.4-1.1-3.8-2.2-5.4-2.5-1.6-.3-3.1-.6-3.5-.6-1.9-.5-5.3 1.8-7.3 5C13 290.5 15 314 21 320.5c1 1.1 2.2 3.3 2.6 5 .4 1.6 2 4.5 3.6 6.3 1.6 1.8 2.6 3.7 2.3 4.1-.5.9.8 5.7 3.1 10.7 3.1 7 11.1 12.2 19.9 12.8 3 .3 5.9.7 6.5 1.1.5.3 1 .3 1-.2 0-.4 1.5-.9 3.3-1 7.1-.6 9.3-.9 10.5-1.6.6-.5 1.6-.6 2.1-.2.5.3 1.2.1 1.6-.5.4-.6 1-.8 1.5-.5.5.3 1.2.1 1.5-.5.5-.8 1.1-.7 2.1.1.7.6 1.1 1.5.8 2-.3.5 0 .9.5.9.6 0 1.1-.5 1.1-1.1 0-.8.6-.7 1.7.2 1.1 1 1.4 1 .9.1-.4-.6-.2-1.2.3-1.2.6 0 1.1.4 1.1 1 0 .5.4 1 1 1 .5 0 .6-.8.3-1.7-.6-1.5-.5-1.6.9-.3.9.8 1.2 1.7.7 1.8-.5.2-.9 1.9-.9 3.8 0 5.4 3 6.7 14.2 6.1 10-.5 10.4-.5 18.9-3.5l5.6-2-.4 2.2c-.3 1.2-1.8 2.9-3.4 3.8-3.4 2-3.7 4.3-.9 5.8 1.6.8 2 .8 2-.4 0-1.5 2.7-2.9 4.1-2 .5.3.9.1.9-.4 0-1.9 3.9 0 5.6 2.7 2.4 3.8 4.6 5.6 9.2 8 4.5 2.3 9.7 2.8 10.8.9.4-.7.3-.8-.4-.4s-1.2.3-1.2-.3c0-1.5 1.8-2.3 2.5-1.1.3.5 1.7 1 3 1s2.7.5 3 1c.3.6 1.7 1 3.1 1 1.7 0 2.3-.4 1.8-1.2-.5-.7-.3-.8.7-.2 3.3 2 15.4 3 16.4 1.4.5-.8.4-1.1-.3-.6-.6.3-1.4.1-1.8-.5-.4-.8-.3-.9.4-.5s1.2.3 1.2-.2c0-1 20.3-.7 25 .3 1.9.4 1.6 0-1.5-2-2.2-1.4-4.6-2.5-5.2-2.5-.7 0-1.3-.5-1.3-1 0-.6-.7-1-1.5-1-1.8 0-1.8-.5-.5-3 .9-1.6.5-2.1-2.2-3.4-4.8-2.1-9.8-3.6-9.8-2.9 0 .3-.9-.2-2-1.2s-1.7-2.1-1.5-2.6c.3-.4.1-1-.5-1.4-.5-.3-1-1.1-1-1.8 0-.6.6-.2 1.4.8.8 1.1 1.2 2.4.9 2.9-.4.5 0 .6.7.1.9-.6 1.1-.4.5.5-.5.8-.4 1.1.3.7 1.2-.8 1.1-3-.3-3.6-.6-.2-1.5-1.1-2.1-1.9-1-1.3-1.3-1.3-2.2.4-1 1.7-1.1 1.7-1.2.1 0-.9-.7-1.7-1.6-1.7-.8 0-1.2-.5-.9-1 .4-.6 1.1-.7 1.7-.4.6.4.8.3.5-.3-.4-.5.2-1.9 1.3-3 1-1.2 1.6-2.4 1.3-2.7-.4-.3.3-.6 1.5-.6 3 0 3.8.3 3.4 1.4-.2.5.4.4 1.2-.4 1.3-1 1.9-1 3.2 0 1.2 1.1 1.5 1.1 1.2 0-.2-.8.2-1.4.7-1.5.6 0 1.6-.4 2.4-.9 1.1-.7 1.3-.5.8.7-.3.9-.1 1.9.5 2.3.6.4.8.3.5-.2-.3-.6-.2-1.6.4-2.4.6-1 .9-1.1.9-.3 0 .7.5 1.3 1.1 1.3.5 0 .8-.4.5-.8-.3-.5.1-.9.9-.9s1.2.4.9.8c-.2.4.1 1.1.7 1.5.7.4.9.3.6-.3-.4-.6 0-1.9.8-2.9 1.3-1.8 1.4-1.8.9.6-.5 2.1-.4 2.2.6 1 1-1.2 1.1-1.1.7.8-.3 1.2-.1 2 .4 1.6.5-.3.9-1.3.9-2.2.1-1.3.5-1.1 1.6.8.8 1.4 1.3 1.7 1 .8-.3-1.2-.1-1.5 1-1.1.7.3 1.4.9 1.4 1.5 0 .5.7.2 1.6-.7.9-.9 1.9-1.3 2.2-1 .4.3 0 1-.7 1.4-.9.6-.5.8 1.3.8 1.4 0 2.6-.4 2.6-.9s.7-.3 1.5.4 2.1 1.9 3 2.6c.8.7 1.3 1.7 1 2.2-.3.4.4.6 1.5.3s2-.1 2 .5c0 1 14.1 6 19.9 6.9 4.8.8 23.8 1 27.5.2 3.4-.6 8.8-5.7 7.9-7.3-1.4-2.1-.7-5.9 1-6.2 2-.3 2.3 1.2.5 1.9-1 .3-1 .8.1 1.8.8.8 1.1.9.8.4-.3-.6.3-2.2 1.3-3.5 1.9-2.5 1.9-2.5 1.5-.2-.2 1.3 0 2 .6 1.7.5-.4.9-1.4.9-2.3.1-1.3.4-1.1 1.4.7 1 1.9 1.4 2 1.9.8.3-.9.3-1.8-.1-2-.4-.2 0-.2.8.1.8.2 2.1.5 2.8.5.8 0 1 .8.6 2.1-.4 1.6-.3 1.7.4.7.7-.9 1.6-1.1 2.8-.6 2.9 1.3 4.5 1.4 3.8.4-.3-.5-1-.6-1.6-.3-.7.5-.8.2-.3-.6.6-.9.4-1.1-.5-.5-.9.6-1.1.4-.5-.4.5-.9 1-1 1.8-.2 1.3 1.3 3.1 1.5 2.3.3-.3-.5.2-.9 1-.9 1 0 1.1.4.4 1.1-1.8 1.8-1.1 3 .8 1.3 1-1 2.1-1.4 2.4-1.1.4.3 1.4.7 2.5.8 1.1.2 1.7 1 1.5 2.2-.2 1.6-.1 1.6.7.4.9-1.2 1.4-1.3 3.1-.2 1.1.6 2.7 1.2 3.5 1.2.9 0 1.4.3 1.2.7-.3.5.5.9 1.6.9 3.2.3 5.1.8 5.7 1.6 1 1.3 11.6 1.7 15.6.6 2.1-.5 4.7-1 5.6-1.1.9-.1 1.5-.4 1.3-.7-.2-.3 1-1.5 2.6-2.5 3.5-2.3 8.9-9.3 11.5-15 1.6-3.6 9.8-16.2 11.3-17.5.8-.7 4.2-8.1 4.8-10.5 1.6-6.8 2-10.2 1.7-16.7-.3-8-2-13.2-5.4-16.3-3.5-3.1-14.1-2.5-21.4 1.2-3.5 1.8-14.8 9.3-15.6 10.3-1 1.4-4.9 3-5.4 2.2-.5-.9-3.5-.8-10.8.3-4.1.6-4.7.5-5.3-1.4-.3-1.2-1.1-2.1-1.6-2.1s-.9-.5-.9-1.1c0-3.2-14.6-14.9-18.6-14.9-.9 0-1.4-1.3-1.5-3.8 0-3.5-.3-6.2-1.2-12.2-.8-5.3-3-13.6-4.4-16.2-.7-1.5-1.3-3-1.3-3.3 0-.3-1.1-2.6-2.4-5.3-1.3-2.6-2.6-6.7-3-9.2-1.5-11.6-7.7-27.5-12.7-32.9-1.7-1.8-1.8-3.1-.6-6.1 2-4.5 3.3-11 3-14.8-.5-7.7-2.6-10-12.3-13.7-4.3-1.6-7.9-3.8-9.5-5.6-3.1-3.8-9.5-14.5-9.8-16.7-.1-1-.6-2.2-.9-2.7-.4-.6-.2-1.7.3-2.5.8-1.3.9-1.3.7 0-.3 1.4 1.3 3.7 8.2 12.4 2.6 3.2 5.6 6 11 10.1 2.9 2.2 5.7 4.5 6.4 5.1.6.5 5.6 3.6 11.1 6.7 21.4 12.1 33.4 21.6 42.6 33.7 4.9 6.4 8.9 9.3 10.6 7.6 1.4-1.4.4-10.4-2.2-19.6-.8-3-1.7-6.2-1.9-7-3.7-13.9-16.4-37.7-26.2-49-3.6-4.2-15.4-16-18-18.1-1.1-.8-4.3-3.4-7.2-5.7-6.6-5.1-18.3-12.2-33.2-19.9-9.5-4.9-16.4-9.3-25.5-16-.6-.5-3-1.9-5.5-3.2-2.5-1.3-5.2-3-6-3.8-1.3-1.3-1.3-1.5.2-2.4 1-.5 2.2-1.9 2.8-2.9.9-1.6.7-2-.5-2-.9 0-1.4.4-1 .9.3.6-.6.6-2.4.1-1.6-.4-3.2-.6-3.4-.3-.3.2-1.8-.2-3.4-1.1-1.8-1-2.2-1.5-1.1-1.6.9 0 2-.5 2.4-1.1.4-.7.1-1-.7-.7-1.9.7-13.2-7.3-12.1-8.4.5-.5 2.5-1 4.6-1.1 3.1-.2 3.4-.4 1.9-1.4-2.3-1.8-1.3-2.4 4.1-2.6 2.5-.1 4.6-.4 4.6-.7 0-3-12.8-3.3-19.3-.5-1 .4-2.1.5-2.4.1-.3-.3-1.2-.1-2 .5-1 .9-1.3.8-1.3-.1 0-1.6 9.1-11 10.8-11 .6 0 1.2-.4 1.2-.8 0-.5-1-.8-2.2-.6-1.3.1-2.9.3-3.6.3-.7.1-1 .5-.7 1.1.3.5 0 .7-.8.4-2.4-.9-6.3 1.3-11.4 6.5l-4.9 5.1-.3-4.2c-.4-6-.3-7.5 1.4-12.9.8-2.3.5-2.3-1.7.2zm26.8 326.1c.4.6.3.8-.4.4-.5-.3-1.2-.1-1.4.6-.2.6-1.4 1.2-2.6 1.3-1.1.1-1.9-.2-1.6-.7.4-.5 1.2-.7 1.9-.4.7.2 1.6-.2 1.9-1 .7-1.7 1.2-1.8 2.2-.2zM87 356.3c0 .7-.4.6-1-.3-.8-1.2-1-1.2-1-.1 0 .8-.3 1.2-.6.8-.9-.9.6-2.8 1.7-2.2.5.4.9 1.2.9 1.8zm113.4 17.2c-.7 1.6-2.4 2.1-2.4.6 0-.8.7-1.3 2.7-2 .1-.1 0 .6-.3 1.4z"/><path d="M297.5 353c-.3.5-.1 1 .4 1 .6 0 1.1-.5 1.1-1 0-.6-.2-1-.4-1-.3 0-.8.4-1.1 1zM312.4 353.8c.3.6 0 1.2-.6 1.5-.7.2-.9.8-.5 1.3s1.2.2 1.6-.5c.5-.7 1.4-1 2-.7.6.4 1.1.5 1.1.2s-1-1-2.1-1.7c-1.3-.6-1.9-.7-1.5-.1z"/></svg>